<svg width="25" height="25" viewBox="0 0 25 25" fill="none" xmlns="http://www.w3.org/2000/svg">
<path d="M16.3802 14.0885L15.2343 12.9427C15.6857 11.71 15.4513 10.6857 14.5312 9.86977C13.6111 9.0538 12.6128 8.84547 11.5364 9.24477L10.3906 8.09894C10.6857 7.90797 11.0156 7.76908 11.3802 7.68227C11.7448 7.59547 12.118 7.55206 12.5 7.55206C13.7326 7.55206 14.7786 7.98175 15.638 8.84113C16.4974 9.7005 16.927 10.7465 16.927 11.9791C16.927 12.3611 16.8793 12.7387 16.7838 13.112C16.6883 13.4852 16.5538 13.8107 16.3802 14.0885ZM19.7395 17.4479L18.6979 16.4062C19.5486 15.7812 20.2908 15.0824 20.9244 14.3099C21.5581 13.5373 22.0225 12.7604 22.3177 11.9791C21.4496 10.0521 20.1475 8.52863 18.4114 7.40883C16.6753 6.28904 14.7916 5.72915 12.7604 5.72915C12.0312 5.72915 11.2847 5.79859 10.5208 5.93748C9.7569 6.07637 9.15795 6.2413 8.72392 6.43227L7.526 5.20831C8.13364 4.93054 8.91055 4.68748 9.85673 4.47915C10.8029 4.27081 11.7274 4.16665 12.6302 4.16665C15.1128 4.16665 17.3828 4.87411 19.4401 6.28904C21.4974 7.70397 23.0034 9.60067 23.9583 11.9791C23.5069 13.0903 22.9253 14.1059 22.2135 15.026C21.5017 15.9462 20.677 16.7535 19.7395 17.4479ZM21.25 23.3333L16.875 19.0364C16.2673 19.2795 15.5816 19.4661 14.8177 19.5963C14.0538 19.7265 13.2812 19.7916 12.5 19.7916C9.96524 19.7916 7.66489 19.0842 5.59892 17.6693C3.53295 16.2543 2.01385 14.3576 1.04163 11.9791C1.38885 11.0764 1.87062 10.1953 2.48694 9.33592C3.10326 8.47654 3.85413 7.65623 4.73954 6.87498L1.45829 3.59373L2.55204 2.47394L22.2656 22.1875L21.25 23.3333ZM5.80725 7.96873C5.16489 8.43748 4.54423 9.0538 3.94527 9.81769C3.34631 10.5816 2.91663 11.3021 2.65621 11.9791C3.54163 13.9062 4.87409 15.4297 6.65361 16.5495C8.43312 17.6693 10.4513 18.2291 12.7083 18.2291C13.2812 18.2291 13.8454 18.1944 14.401 18.125C14.9566 18.0555 15.3732 17.9514 15.651 17.8125L13.9843 16.1458C13.7934 16.2326 13.559 16.2977 13.2812 16.3411C13.0034 16.3845 12.743 16.4062 12.5 16.4062C11.2847 16.4062 10.243 15.9809 9.37496 15.1302C8.5069 14.2795 8.07288 13.2291 8.07288 11.9791C8.07288 11.7187 8.09458 11.4583 8.13798 11.1979C8.18138 10.9375 8.24649 10.7031 8.33329 10.4948L5.80725 7.96873Z" fill="black" fill-opacity="0.4"/>
</svg>
