<svg width="21" height="20" viewBox="0 0 21 20" fill="none" xmlns="http://www.w3.org/2000/svg">
<path d="M3.625 6.66668C3.625 5.85136 3.62734 5.34543 3.67925 4.97767C3.72637 4.64389 3.79612 4.57525 3.82722 4.54564C3.86518 4.50948 3.95751 4.43419 4.33178 4.38626C4.73002 4.33527 5.27308 4.33334 6.125 4.33334H14.875C15.7269 4.33334 16.27 4.33527 16.6682 4.38626C17.0425 4.43419 17.1348 4.50948 17.1728 4.54564L17.8498 3.83476L17.1728 4.54564C17.2039 4.57525 17.2736 4.64389 17.3207 4.97767C17.3727 5.34543 17.375 5.85136 17.375 6.66668V13.1667H3.625V6.66668Z" stroke="#B6B6B6" stroke-width="2"/>
<path d="M3.20833 13.1667C2.38042 13.1667 1.625 13.8177 1.625 14.7222C1.625 15.9336 2.64159 16.8333 3.79167 16.8333H17.2083C18.3584 16.8333 19.375 15.9336 19.375 14.7222C19.375 13.8177 18.6196 13.1667 17.7917 13.1667H3.20833Z" stroke="#B6B6B6" stroke-width="2"/>
</svg>
