<svg width="21" height="19" viewBox="0 0 21 19" fill="none" xmlns="http://www.w3.org/2000/svg">
<path d="M19.7814 19C19.4361 19 19.149 18.8862 18.9202 18.6586C18.6913 18.431 18.5769 18.149 18.5769 17.8125V1.1875C18.5769 0.851042 18.6937 0.56901 18.9273 0.341406C19.1608 0.113802 19.4503 0 19.7955 0C20.1408 0 20.4279 0.113802 20.6567 0.341406C20.8856 0.56901 21 0.851042 21 1.1875V17.8125C21 18.149 20.8832 18.431 20.6497 18.6586C20.4161 18.8862 20.1267 19 19.7814 19ZM1.89808 17.6938C1.49423 17.984 1.07692 18.0137 0.646154 17.7828C0.215385 17.5519 0 17.2056 0 16.7437V2.25625C0 1.79444 0.215385 1.44809 0.646154 1.21719C1.07692 0.986285 1.49423 1.01597 1.89808 1.30625L12.5192 8.51042C12.8692 8.75085 13.0442 9.08145 13.0442 9.50222C13.0442 9.92296 12.8692 10.2521 12.5192 10.4896L1.89808 17.6938Z" fill="#B6B6B6"/>
</svg>
