<svg width="21" height="19" viewBox="0 0 21 19" fill="none" xmlns="http://www.w3.org/2000/svg">
<path d="M1.21154 19C0.861538 19 0.572115 18.8878 0.343269 18.6635C0.114423 18.4392 0 18.1556 0 17.8125V1.1875C0 0.844444 0.114423 0.560764 0.343269 0.336458C0.572115 0.112153 0.861538 0 1.21154 0C1.56154 0 1.85096 0.112153 2.07981 0.336458C2.30865 0.560764 2.42308 0.844444 2.42308 1.1875V17.8125C2.42308 18.1556 2.30865 18.4392 2.07981 18.6635C1.85096 18.8878 1.56154 19 1.21154 19ZM19.1019 17.6938L8.48077 10.4896C8.13077 10.2521 7.95577 9.92222 7.95577 9.5C7.95577 9.07778 8.13077 8.74792 8.48077 8.51042L19.1019 1.30625C19.5058 1.01597 19.9231 0.982986 20.3538 1.20729C20.7846 1.4316 21 1.78125 21 2.25625V16.7437C21 17.2188 20.7846 17.5684 20.3538 17.7927C19.9231 18.017 19.5058 17.984 19.1019 17.6938Z" fill="#B6B6B6"/>
</svg>
