<svg width="18" height="35" viewBox="0 0 18 35" fill="none" xmlns="http://www.w3.org/2000/svg">
<path d="M6.47222 16.2806L0.277778 10.0294C0.111111 9.86117 0.0277778 9.66027 0.0277778 9.42667C0.0277778 9.19306 0.111111 8.99217 0.277778 8.82397C0.431685 8.67446 0.627574 8.59971 0.865445 8.59971C1.1033 8.59971 1.2963 8.67446 1.44444 8.82397L7.66667 15.0752L6.47222 16.2806ZM12.4722 26.7647C12.2361 26.7647 12.0382 26.6836 11.8785 26.5215C11.7188 26.3594 11.6389 26.1585 11.6389 25.9188C11.6389 25.6791 11.7188 25.4799 11.8785 25.321C12.0382 25.1622 12.2361 25.0828 12.4722 25.0828H15.1111L10 19.9528L11.1667 18.7474L16.3333 23.9054V21.1863C16.3333 20.948 16.4137 20.7483 16.5743 20.5871C16.735 20.4259 16.934 20.3453 17.1715 20.3453C17.409 20.3453 17.6065 20.4259 17.7639 20.5871C17.9213 20.7483 18 20.948 18 21.1863V25.9237C18 26.162 17.9201 26.3617 17.7604 26.5229C17.6007 26.6841 17.4028 26.7647 17.1667 26.7647H12.4722ZM0.25 26.162C0.0833333 26.0032 0 25.8069 0 25.5733C0 25.3397 0.0833333 25.1388 0.25 24.9706L15.1667 9.91723H12.4722C12.2361 9.91723 12.0382 9.83617 11.8785 9.67405C11.7188 9.51191 11.6389 9.31102 11.6389 9.07136C11.6389 8.83168 11.7188 8.63242 11.8785 8.47357C12.0382 8.31472 12.2361 8.23529 12.4722 8.23529H17.1667C17.4028 8.23529 17.6007 8.31588 17.7604 8.47707C17.9201 8.63826 18 8.83799 18 9.07626V13.8137C18 14.052 17.9197 14.2517 17.759 14.4129C17.5984 14.5741 17.3993 14.6547 17.1618 14.6547C16.9243 14.6547 16.7269 14.5741 16.5694 14.4129C16.412 14.2517 16.3333 14.052 16.3333 13.8137V11.1226L1.41667 26.176C1.26728 26.3255 1.07716 26.4003 0.846305 26.4003C0.615435 26.4003 0.416667 26.3209 0.25 26.162Z" fill="#00A861"/>
<ellipse cx="9" cy="32.9412" rx="2" ry="2.05882" fill="#00A861"/>
</svg>
