<svg width="21" height="20" viewBox="0 0 21 20" fill="none" xmlns="http://www.w3.org/2000/svg">
<path d="M2.77852 11.6326C2.15001 10.6349 2.15001 9.36507 2.77852 8.36743V8.36743C2.95965 8.07992 3.25205 7.88056 3.58584 7.81698L5.11449 7.52581C5.20229 7.50909 5.28198 7.46345 5.34084 7.39618L6.82088 5.70471C7.9988 4.35851 8.58776 3.68541 9.10638 3.88028C9.625 4.07514 9.625 4.96953 9.625 6.75832L9.625 13.2417C9.625 15.0305 9.625 15.9249 9.10638 16.1197C8.58776 16.3146 7.9988 15.6415 6.82088 14.2953L5.34084 12.6038C5.28198 12.5365 5.20229 12.4909 5.11449 12.4742L3.58584 12.183C3.25205 12.1194 2.95965 11.9201 2.77852 11.6326V11.6326Z" stroke="#B6B6B6" stroke-width="2"/>
<path d="M13.5936 7.05373C14.4098 7.83111 14.8704 8.88422 14.875 9.9836C14.8795 11.083 14.4277 12.1395 13.6179 12.923" stroke="#B6B6B6" stroke-width="2" stroke-linecap="round"/>
</svg>
