<svg width="27" height="27" viewBox="0 0 27 27" fill="none" xmlns="http://www.w3.org/2000/svg">
<path d="M3.85712 10.2571C3.85712 8.01694 3.85712 6.89683 4.29309 6.04119C4.67658 5.28854 5.28851 4.67661 6.04115 4.29312C6.8968 3.85715 8.01691 3.85715 10.2571 3.85715H16.7428C18.983 3.85715 20.1031 3.85715 20.9588 4.29312C21.7114 4.67661 22.3234 5.28854 22.7069 6.04119C23.1428 6.89683 23.1428 8.01694 23.1428 10.2571V16.7429C23.1428 18.9831 23.1428 20.1032 22.7069 20.9588C22.3234 21.7115 21.7114 22.3234 20.9588 22.7069C20.1031 23.1429 18.983 23.1429 16.7428 23.1429H10.2571C8.01691 23.1429 6.8968 23.1429 6.04115 22.7069C5.28851 22.3234 4.67658 21.7115 4.29309 20.9588C3.85712 20.1032 3.85712 18.9831 3.85712 16.7429V10.2571Z" fill="#B6B6B6"/>
<path d="M13.5 8.67856L13.5 18.3214" stroke="#222222" stroke-linejoin="round"/>
<path d="M18.3214 13.5L8.67855 13.5" stroke="#222222" stroke-linejoin="round"/>
</svg>
