<svg width="13" height="13" viewBox="0 0 13 13" fill="none" xmlns="http://www.w3.org/2000/svg">
<path d="M6.49998 8.72083C7.13192 8.72083 7.67359 8.50642 8.12498 8.0776C8.57637 7.64878 8.80206 7.12291 8.80206 6.49999C8.80206 5.85902 8.57863 5.3151 8.13175 4.86822C7.68488 4.42135 7.14095 4.19791 6.49998 4.19791C5.87706 4.19791 5.35119 4.42361 4.92238 4.87499C4.49356 5.32638 4.27915 5.86805 4.27915 6.49999C4.27915 7.12291 4.49356 7.64878 4.92238 8.0776C5.35119 8.50642 5.87706 8.72083 6.49998 8.72083ZM6.49998 7.04166C6.34651 7.04166 6.21786 6.98975 6.11404 6.88593C6.01022 6.78211 5.95831 6.65347 5.95831 6.49999C5.95831 6.34652 6.01022 6.21788 6.11404 6.11406C6.21786 6.01024 6.34651 5.95833 6.49998 5.95833C6.65345 5.95833 6.7821 6.01024 6.88592 6.11406C6.98974 6.21788 7.04165 6.34652 7.04165 6.49999C7.04165 6.65347 6.98974 6.78211 6.88592 6.88593C6.7821 6.98975 6.65345 7.04166 6.49998 7.04166ZM6.49998 11.9167C5.7597 11.9167 5.06005 11.7745 4.40102 11.4901C3.74199 11.2057 3.16647 10.8175 2.67446 10.3255C2.18244 9.8335 1.79425 9.25798 1.50988 8.59895C1.2255 7.93993 1.08331 7.24027 1.08331 6.49999C1.08331 5.75069 1.2255 5.04652 1.50988 4.38749C1.79425 3.72847 2.18244 3.1552 2.67446 2.6677C3.16647 2.1802 3.74199 1.79427 4.40102 1.50989C5.06005 1.22552 5.7597 1.08333 6.49998 1.08333C7.24928 1.08333 7.95345 1.22552 8.61248 1.50989C9.27151 1.79427 9.84477 2.1802 10.3323 2.6677C10.8198 3.1552 11.2057 3.72847 11.4901 4.38749C11.7745 5.04652 11.9166 5.75069 11.9166 6.49999C11.9166 7.24027 11.7745 7.93993 11.4901 8.59895C11.2057 9.25798 10.8198 9.8335 10.3323 10.3255C9.84477 10.8175 9.27151 11.2057 8.61248 11.4901C7.95345 11.7745 7.24928 11.9167 6.49998 11.9167ZM6.49998 11.1042C7.78192 11.1042 8.86977 10.655 9.76352 9.75677C10.6573 8.8585 11.1041 7.77291 11.1041 6.49999C11.1041 5.21805 10.6573 4.1302 9.76352 3.23645C8.86977 2.3427 7.78192 1.89583 6.49998 1.89583C5.22706 1.89583 4.14147 2.3427 3.24321 3.23645C2.34494 4.1302 1.89581 5.21805 1.89581 6.49999C1.89581 7.77291 2.34494 8.8585 3.24321 9.75677C4.14147 10.655 5.22706 11.1042 6.49998 11.1042Z" fill="#B6B6B6"/>
</svg>
