<svg width="28" height="28" viewBox="0 0 28 28" fill="none" xmlns="http://www.w3.org/2000/svg">
<path d="M4 10.4C4 8.15979 4 7.03968 4.43597 6.18404C4.81947 5.43139 5.43139 4.81947 6.18404 4.43597C7.03968 4 8.15979 4 10.4 4H17.6C19.8402 4 20.9603 4 21.816 4.43597C22.5686 4.81947 23.1805 5.43139 23.564 6.18404C24 7.03968 24 8.15979 24 10.4V17.6C24 19.8402 24 20.9603 23.564 21.816C23.1805 22.5686 22.5686 23.1805 21.816 23.564C20.9603 24 19.8402 24 17.6 24H10.4C8.15979 24 7.03968 24 6.18404 23.564C5.43139 23.1805 4.81947 22.5686 4.43597 21.816C4 20.9603 4 19.8402 4 17.6V10.4Z" fill="#004430"/>
<path d="M10.5079 11.9762C10.5079 10.0681 10.5079 9.11411 10.8915 8.52135C11.275 7.92859 11.8924 7.92859 13.127 7.92859H14.873C16.1076 7.92859 16.725 7.92859 17.1085 8.52135C17.4921 9.11411 17.4921 10.0681 17.4921 11.9762V16.5821C17.4921 18.3923 17.4921 19.2974 17.1235 19.5742C16.755 19.851 16.2945 19.2918 15.3735 18.1735L15.0787 17.8156C14.5609 17.1867 14.3019 16.8723 14 16.8723C13.6981 16.8723 13.4391 17.1867 12.9213 17.8156L12.6265 18.1735C11.7055 19.2918 11.245 19.851 10.8765 19.5742C10.5079 19.2974 10.5079 18.3923 10.5079 16.5821V11.9762Z" fill="#10813D" stroke="#10813D" stroke-width="2"/>
</svg>
