<svg width="27" height="27" viewBox="0 0 27 27" fill="none" xmlns="http://www.w3.org/2000/svg">
<path fill-rule="evenodd" clip-rule="evenodd" d="M4.35288 9.65357C4 10.4208 4 11.2937 4 13.0393V18.4913C4 20.9156 4 22.1278 4.75315 22.881C5.46838 23.5962 6.59756 23.6322 8.78571 23.634V17.2056C8.78571 15.9433 9.80905 14.9199 11.0714 14.9199H14.9286C16.1909 14.9199 17.2143 15.9433 17.2143 17.2056V23.634C19.4024 23.6322 20.5316 23.5962 21.2468 22.881C22 22.1278 22 20.9156 22 18.4913V13.0393C22 11.2937 22 10.4208 21.6471 9.65357C21.2942 8.88634 20.6315 8.3183 19.3061 7.18222L18.0204 6.08018C15.6247 4.02673 14.4268 3 13 3C11.5732 3 10.3753 4.02673 7.97961 6.08018L6.6939 7.18222C5.36847 8.3183 4.70576 8.88634 4.35288 9.65357ZM15.2143 23.6341V17.2056C15.2143 17.0478 15.0864 16.9199 14.9286 16.9199H11.0714C10.9136 16.9199 10.7857 17.0478 10.7857 17.2056V23.6341H15.2143Z" fill="#B6B6B6"/>
</svg>
