<svg width="27" height="27" viewBox="0 0 27 27" fill="none" xmlns="http://www.w3.org/2000/svg">
<path d="M4.5 9.625C4.5 7.73938 4.5 6.79657 5.08579 6.21079C5.67157 5.625 6.61438 5.625 8.5 5.625H9.59315C10.4106 5.625 10.8194 5.625 11.1869 5.77724C11.5545 5.92948 11.8435 6.21851 12.4216 6.79657L13.4534 7.82843C14.0315 8.40649 14.3205 8.69552 14.6881 8.84776C15.0556 9 15.4644 9 16.2819 9H18.5C20.3856 9 21.3284 9 21.9142 9.58579C22.5 10.1716 22.5 11.1144 22.5 13V17.375C22.5 19.2606 22.5 20.2034 21.9142 20.7892C21.3284 21.375 20.3856 21.375 18.5 21.375H8.5C6.61438 21.375 5.67157 21.375 5.08579 20.7892C4.5 20.2034 4.5 19.2606 4.5 17.375V9.625Z" stroke="#B6B6B6" stroke-width="2"/>
</svg>
