<svg width="27" height="27" viewBox="0 0 27 27" fill="none" xmlns="http://www.w3.org/2000/svg">
<path d="M3.85712 10.2571C3.85712 8.01694 3.85712 6.89683 4.29309 6.04119C4.67658 5.28854 5.28851 4.67661 6.04115 4.29312C6.8968 3.85715 8.01691 3.85715 10.2571 3.85715H16.7428C18.983 3.85715 20.1031 3.85715 20.9588 4.29312C21.7114 4.67661 22.3234 5.28854 22.7069 6.04119C23.1428 6.89683 23.1428 8.01694 23.1428 10.2571V16.7429C23.1428 18.9831 23.1428 20.1032 22.7069 20.9588C22.3234 21.7115 21.7114 22.3234 20.9588 22.7069C20.1031 23.1429 18.983 23.1429 16.7428 23.1429H10.2571C8.01691 23.1429 6.8968 23.1429 6.04115 22.7069C5.28851 22.3234 4.67658 21.7115 4.29309 20.9588C3.85712 20.1032 3.85712 18.9831 3.85712 16.7429V10.2571Z" fill="url(#paint0_linear_1_37)"/>
<path d="M9.69552 15.0453L13.2337 18.0921C13.3868 18.2239 13.6132 18.2239 13.7663 18.0921L17.3045 15.0453C18.4014 14.1008 18.5154 12.4292 17.5802 11.3243C16.5219 10.0739 14.5121 10.2705 13.7555 11.7235C13.6479 11.9302 13.3521 11.9302 13.2445 11.7235C12.488 10.2705 10.4781 10.0739 9.41977 11.3243C8.48457 12.4292 8.5986 14.1008 9.69552 15.0453Z" fill="white" stroke="white" stroke-width="2"/>
<defs>
<linearGradient id="paint0_linear_1_37" x1="13.5" y1="3.85715" x2="25.4571" y2="13.5184" gradientUnits="userSpaceOnUse">
<stop stop-color="#804CEE"/>
<stop offset="1" stop-color="#C8C4CF"/>
</linearGradient>
</defs>
</svg>
