<svg width="16" height="16" viewBox="0 0 16 16" fill="none" xmlns="http://www.w3.org/2000/svg">
<path d="M6.00002 10.6667H4.16832C3.33899 10.6667 2.66669 11.339 2.66669 12.1683V12.1683C2.66669 13.1159 3.53362 13.8266 4.46282 13.6408L4.66021 13.6013C5.43925 13.4455 6.00002 12.7615 6.00002 11.967V6.73267C6.00002 5.69331 6.00002 5.17363 6.20597 4.75565C6.34145 4.48067 6.53833 4.24052 6.78139 4.05374C7.15087 3.76982 7.66046 3.6679 8.67963 3.46407L9.39808 3.32038C10.1959 3.16081 10.5949 3.08102 10.919 3.12224C11.68 3.21901 12.3186 3.74253 12.5627 4.46977C12.6667 4.77952 12.6667 5.18635 12.6667 5.99999V5.99999M12.6667 9.33332V10.6337C12.6667 11.4281 12.1059 12.1121 11.3269 12.268L11.1295 12.3074C10.2003 12.4933 9.33335 11.7826 9.33335 10.835V10.835C9.33335 10.0056 10.0057 9.33332 10.835 9.33332H12.6667ZM12.6667 9.33332V5.99999M12.6667 5.99999L6.00002 7.33332" stroke="#B6B6B6"/>
</svg>
