<svg width="15" height="15" viewBox="0 0 15 15" fill="none" xmlns="http://www.w3.org/2000/svg">
<path d="M10.2563 11.1187L11.1 10.275L8.11875 7.275V3.50625H6.99375V7.725L10.2563 11.1187ZM7.5 15C6.475 15 5.50625 14.8031 4.59375 14.4094C3.68125 14.0156 2.88438 13.4781 2.20312 12.7969C1.52188 12.1156 0.984375 11.3188 0.590625 10.4062C0.196875 9.49375 0 8.525 0 7.5C0 6.475 0.196875 5.50625 0.590625 4.59375C0.984375 3.68125 1.52188 2.88438 2.20312 2.20312C2.88438 1.52188 3.68125 0.984375 4.59375 0.590625C5.50625 0.196875 6.475 0 7.5 0C8.525 0 9.49375 0.196875 10.4062 0.590625C11.3188 0.984375 12.1156 1.52188 12.7969 2.20312C13.4781 2.88438 14.0156 3.68125 14.4094 4.59375C14.8031 5.50625 15 6.475 15 7.5C15 8.525 14.8031 9.49375 14.4094 10.4062C14.0156 11.3188 13.4781 12.1156 12.7969 12.7969C12.1156 13.4781 11.3188 14.0156 10.4062 14.4094C9.49375 14.8031 8.525 15 7.5 15ZM7.5 13.875C9.25 13.875 10.75 13.25 12 12C13.25 10.75 13.875 9.25 13.875 7.5C13.875 5.75 13.25 4.25 12 3C10.75 1.75 9.25 1.125 7.5 1.125C5.75 1.125 4.25 1.75 3 3C1.75 4.25 1.125 5.75 1.125 7.5C1.125 9.25 1.75 10.75 3 12C4.25 13.25 5.75 13.875 7.5 13.875Z" fill="white" fill-opacity="0.62"/>
</svg>
