<svg width="22" height="18" viewBox="0 0 22 18" fill="none" xmlns="http://www.w3.org/2000/svg">
<path d="M3.63685 10.4289L10.4583 16.5166C10.6553 16.6924 10.7538 16.7803 10.8658 16.8115C10.9536 16.836 11.0464 16.836 11.1342 16.8115C11.2462 16.7803 11.3447 16.6924 11.5417 16.5166L18.3632 10.4289C20.397 8.61392 20.6409 5.51923 18.9166 3.40794L18.7466 3.19973C16.7516 0.757018 12.902 1.18079 11.4862 3.99897C11.2853 4.39874 10.7147 4.39873 10.5138 3.99897C9.09801 1.18079 5.24835 0.757021 3.25339 3.19973L3.08335 3.40794C1.35906 5.51924 1.60303 8.61391 3.63685 10.4289Z" stroke="#B6B6B6" stroke-width="2"/>
</svg>
